<mxfile host="app.diagrams.net" modified="2022-04-18T10:03:28.663Z" agent="5.0 (Macintosh; Intel Mac OS X 10_15_7) AppleWebKit/537.36 (KHTML, like Gecko) Chrome/100.0.4896.75 Safari/537.36" etag="8NHHHB5C1Ss8xWCWEXAF" version="17.4.5" type="github">
  <diagram id="Cd5y1kNHd57_tZJnAyKG" name="Page-1">
    <mxGraphModel dx="1042" dy="507" grid="1" gridSize="10" guides="1" tooltips="1" connect="1" arrows="1" fold="1" page="1" pageScale="1" pageWidth="827" pageHeight="1169" math="0" shadow="0">
      <root>
        <mxCell id="0" />
        <mxCell id="1" parent="0" />
        <mxCell id="FE19WrhtxEeYcqXIJ0xn-2" value="AWS Cloud" style="sketch=0;outlineConnect=0;gradientColor=none;html=1;whiteSpace=wrap;fontSize=12;fontStyle=0;shape=mxgraph.aws4.group;grIcon=mxgraph.aws4.group_aws_cloud;strokeColor=#858B94;fillColor=none;verticalAlign=top;align=left;spacingLeft=30;fontColor=#858B94;dashed=0;" parent="1" vertex="1">
          <mxGeometry x="60" y="70" width="730" height="500" as="geometry" />
        </mxCell>
        <mxCell id="cIw4jWMmGr2bx2FsddDH-3" style="edgeStyle=orthogonalEdgeStyle;rounded=0;orthogonalLoop=1;jettySize=auto;html=1;" edge="1" parent="1" source="FE19WrhtxEeYcqXIJ0xn-3" target="cIw4jWMmGr2bx2FsddDH-2">
          <mxGeometry relative="1" as="geometry" />
        </mxCell>
        <mxCell id="FE19WrhtxEeYcqXIJ0xn-3" value="EMR 5.X" style="outlineConnect=0;dashed=0;verticalLabelPosition=bottom;verticalAlign=top;align=center;html=1;shape=mxgraph.aws3.emr_cluster;fillColor=#F58534;gradientColor=none;" parent="1" vertex="1">
          <mxGeometry x="230" y="170" width="55.5" height="60" as="geometry" />
        </mxCell>
        <mxCell id="cIw4jWMmGr2bx2FsddDH-2" value="Metastore" style="sketch=0;points=[[0,0,0],[0.25,0,0],[0.5,0,0],[0.75,0,0],[1,0,0],[0,1,0],[0.25,1,0],[0.5,1,0],[0.75,1,0],[1,1,0],[0,0.25,0],[0,0.5,0],[0,0.75,0],[1,0.25,0],[1,0.5,0],[1,0.75,0]];outlineConnect=0;fontColor=#232F3E;gradientColor=#4D72F3;gradientDirection=north;fillColor=#3334B9;strokeColor=#ffffff;dashed=0;verticalLabelPosition=bottom;verticalAlign=top;align=center;html=1;fontSize=12;fontStyle=0;aspect=fixed;shape=mxgraph.aws4.resourceIcon;resIcon=mxgraph.aws4.rds;" vertex="1" parent="1">
          <mxGeometry x="218.75" y="330" width="78" height="78" as="geometry" />
        </mxCell>
        <mxCell id="cIw4jWMmGr2bx2FsddDH-5" style="edgeStyle=orthogonalEdgeStyle;rounded=0;orthogonalLoop=1;jettySize=auto;html=1;entryX=1;entryY=0.5;entryDx=0;entryDy=0;entryPerimeter=0;exitX=0.5;exitY=1;exitDx=0;exitDy=0;exitPerimeter=0;dashed=1;" edge="1" parent="1" source="cIw4jWMmGr2bx2FsddDH-4" target="cIw4jWMmGr2bx2FsddDH-2">
          <mxGeometry relative="1" as="geometry" />
        </mxCell>
        <mxCell id="cIw4jWMmGr2bx2FsddDH-4" value="EMR 6.X" style="outlineConnect=0;dashed=0;verticalLabelPosition=bottom;verticalAlign=top;align=center;html=1;shape=mxgraph.aws3.emr_cluster;fillColor=#F58534;gradientColor=none;" vertex="1" parent="1">
          <mxGeometry x="397.25" y="168.5" width="55.5" height="63" as="geometry" />
        </mxCell>
      </root>
    </mxGraphModel>
  </diagram>
</mxfile>
